<svg width="24" height="24" viewBox="0 0 24 24" fill="none" xmlns="http://www.w3.org/2000/svg">
<path d="M17.7388 21.81H5.26136C4.33055 21.81 3.57324 21.0013 3.57324 20.0072L3.57324 9.62704C3.57324 9.28076 3.83611 9 4.16041 9C4.48472 9 4.74759 9.28076 4.74759 9.62704V20.0072C4.74759 20.3098 4.97805 20.5559 5.26136 20.5559H17.7388C18.0221 20.5559 18.2525 20.3098 18.2525 20.0072V9.62704C18.2525 9.28076 18.5154 9 18.8397 9C19.164 9 19.4269 9.28076 19.4269 9.62704V20.0072C19.4269 21.0013 18.6696 21.81 17.7388 21.81Z" fill="#333333" stroke="#333333" stroke-width="0.5"/>
<path d="M21.3438 13C21.1758 13 21.0079 12.9307 20.8798 12.792L12.7181 3.96392C12.0465 3.23739 10.9536 3.23739 10.2819 3.96392L2.12029 12.7921C1.86403 13.0693 1.4485 13.0693 1.19223 12.7921C0.935923 12.5149 0.935923 12.0654 1.19223 11.7882L9.35386 2.96002C10.5372 1.67999 12.4628 1.67999 13.6461 2.96002L21.8078 11.7882C22.0641 12.0654 22.0641 12.5148 21.8078 12.792C21.6797 12.9307 21.5117 13 21.3438 13Z" fill="#333333" stroke="#333333" stroke-width="0.5"/>
</svg>
