<svg width="20" height="20" viewBox="0 0 20 20" fill="none" xmlns="http://www.w3.org/2000/svg">
<path d="M14.8179 7.39583H14.271V5.20833C14.271 2.79546 12.3089 0.833328 9.896 0.833328C7.48312 0.833328 5.521 2.79546 5.521 5.20833V7.39583H4.97412C4.06996 7.39583 3.3335 8.13149 3.3335 9.03645V16.6927C3.3335 17.5977 4.06996 18.3333 4.97412 18.3333H14.8179C15.722 18.3333 16.4585 17.5977 16.4585 16.6927V9.03645C16.4585 8.13149 15.722 7.39583 14.8179 7.39583ZM6.97937 5.20833C6.97937 3.59975 8.28741 2.29171 9.896 2.29171C11.5046 2.29171 12.8126 3.59975 12.8126 5.20833V7.39583H6.97937V5.20833Z" fill="black" fill-opacity="0.87"/>
</svg>
